<svg width="15" height="16" viewBox="0 0 15 16" fill="none" xmlns="http://www.w3.org/2000/svg">
<path fill-rule="evenodd" clip-rule="evenodd" d="M1.20471 2.86248L5.71275 7.37242C6.69597 8.35373 8.30318 8.35458 9.28722 7.37242L13.7953 2.86248C13.8059 2.85189 13.8141 2.83907 13.8193 2.82495C13.8244 2.81084 13.8264 2.79575 13.8251 2.78078C13.8238 2.76581 13.8192 2.75131 13.8116 2.73832C13.8041 2.72532 13.7937 2.71415 13.7814 2.70559C13.3216 2.38493 12.7621 2.19482 12.1595 2.19482H2.84047C2.23782 2.19482 1.67839 2.38496 1.21859 2.70559C1.20624 2.71415 1.19592 2.72532 1.18836 2.73832C1.18081 2.75131 1.17621 2.76581 1.17488 2.78078C1.17356 2.79575 1.17554 2.81084 1.1807 2.82495C1.18585 2.83907 1.19405 2.85189 1.20471 2.86248ZM9.04375e-07 5.03522C-0.000366143 4.57699 0.110999 4.12557 0.324448 3.72008C0.3319 3.70579 0.342619 3.69345 0.355735 3.68408C0.368851 3.6747 0.383994 3.66856 0.399932 3.66614C0.41587 3.66372 0.432155 3.66509 0.447461 3.67015C0.462768 3.67521 0.476666 3.68381 0.488025 3.69525L4.939 8.14616C6.34848 9.55768 8.65067 9.55849 10.061 8.14616L14.512 3.69525C14.5233 3.68381 14.5372 3.67521 14.5525 3.67015C14.5678 3.66509 14.5841 3.66372 14.6001 3.66614C14.616 3.66856 14.6312 3.6747 14.6443 3.68408C14.6574 3.69345 14.6681 3.70579 14.6756 3.72008C14.889 4.12558 15.0003 4.57699 15 5.03522V10.9647C15 12.5321 13.725 13.8052 12.1595 13.8052H2.84047C1.27504 13.8052 9.04375e-07 12.5321 9.04375e-07 10.9647V5.03522Z" fill="#2B336A"/>
</svg>
