<svg width="15" height="15" viewBox="0 0 15 15" fill="none" xmlns="http://www.w3.org/2000/svg">
<path fill-rule="evenodd" clip-rule="evenodd" d="M1.20471 2.36248L5.71275 6.87242C6.69597 7.85373 8.30318 7.85458 9.28722 6.87242L13.7953 2.36248C13.8059 2.35189 13.8141 2.33907 13.8193 2.32495C13.8244 2.31084 13.8264 2.29575 13.8251 2.28078C13.8238 2.26581 13.8192 2.25131 13.8116 2.23832C13.8041 2.22532 13.7937 2.21415 13.7814 2.20559C13.3216 1.88493 12.7621 1.69482 12.1595 1.69482H2.84047C2.23782 1.69482 1.67839 1.88496 1.21859 2.20559C1.20624 2.21415 1.19592 2.22532 1.18836 2.23832C1.18081 2.25131 1.17621 2.26581 1.17488 2.28078C1.17356 2.29575 1.17554 2.31084 1.1807 2.32495C1.18585 2.33907 1.19405 2.35189 1.20471 2.36248ZM9.04375e-07 4.53522C-0.000366143 4.07699 0.110999 3.62557 0.324448 3.22008C0.3319 3.20579 0.342619 3.19345 0.355735 3.18408C0.368851 3.1747 0.383994 3.16856 0.399932 3.16614C0.41587 3.16372 0.432155 3.16509 0.447461 3.17015C0.462768 3.17521 0.476666 3.18381 0.488025 3.19525L4.939 7.64616C6.34848 9.05768 8.65067 9.05849 10.061 7.64616L14.512 3.19525C14.5233 3.18381 14.5372 3.17521 14.5525 3.17015C14.5678 3.16509 14.5841 3.16372 14.6001 3.16614C14.616 3.16856 14.6312 3.1747 14.6443 3.18408C14.6574 3.19345 14.6681 3.20579 14.6756 3.22008C14.889 3.62558 15.0003 4.07699 15 4.53522V10.4647C15 12.0321 13.725 13.3052 12.1595 13.3052H2.84047C1.27504 13.3052 9.04375e-07 12.0321 9.04375e-07 10.4647V4.53522Z" fill="#BFBFBF"/>
</svg>
