<svg width="15" height="16" viewBox="0 0 15 16" fill="none" xmlns="http://www.w3.org/2000/svg">
<g clip-path="url(#clip0_642_5901)">
<path d="M11.7188 6.125H11.25V4.25C11.25 2.18187 9.56813 0.5 7.5 0.5C5.43187 0.5 3.75 2.18187 3.75 4.25V6.125H3.28125C2.90844 6.1255 2.55104 6.27381 2.28743 6.53743C2.02381 6.80104 1.8755 7.15844 1.875 7.53125V14.0938C1.875 14.8694 2.50625 15.5 3.28125 15.5H11.7188C12.4938 15.5 13.125 14.8694 13.125 14.0938V7.53125C13.125 6.75562 12.4938 6.125 11.7188 6.125ZM5 4.25C5 2.87125 6.12125 1.75 7.5 1.75C8.87875 1.75 10 2.87125 10 4.25V6.125H5V4.25ZM8.125 10.9513V12.375C8.125 12.5408 8.05915 12.6997 7.94194 12.8169C7.82473 12.9342 7.66576 13 7.5 13C7.33424 13 7.17527 12.9342 7.05806 12.8169C6.94085 12.6997 6.875 12.5408 6.875 12.375V10.9513C6.50312 10.7344 6.25 10.3356 6.25 9.875C6.25 9.18562 6.81062 8.625 7.5 8.625C8.18938 8.625 8.75 9.18562 8.75 9.875C8.75 10.3356 8.49688 10.7344 8.125 10.9513Z" fill="#2B336A"/>
</g>
<defs>
<clipPath id="clip0_642_5901">
<rect width="15" height="15" fill="white" transform="translate(0 0.5)"/>
</clipPath>
</defs>
</svg>
